<svg xmlns="http://www.w3.org/2000/svg" xmlns:svg="http://www.w3.org/2000/svg" xmlns:xlink="http://www.w3.org/1999/xlink" id="svg3397" width="2104" height="4713" version="1.1"><defs id="defs3399"><clipPath id="clipPath6024" clipPathUnits="userSpaceOnUse"><rect id="rect6026" width="87" height="100" x="225" y="-5429" fill="none" stroke="none"/></clipPath></defs><metadata id="metadata3402"/><g id="layer3" transform="translate(-16,11069)"><g id="uifile_icon_16x16" transform="translate(0,-1036)"><image id="image3192" width="16" height="16" x="16" y="-5336" xlink:href="GenericDocumentIcon.iconset\icon_16x16.png"/><rect id="rect4308-8" width="2.37" height="3" x="27.63" y="-5325" fill="#cd9aa3" fill-opacity="1" stroke="none"/><path id="path4291-2" fill="#47484a" fill-opacity="1" stroke="none" d="m 19,-5324 -1,0.5082 1,0.4918 z"/><g id="tinyqt" transform="translate(-50,-5859)"><path id="path5089" fill="#41cd52" fill-opacity="1" fill-rule="evenodd" stroke="none" stroke-dasharray="none" stroke-linejoin="round" stroke-miterlimit="4" stroke-opacity="1" stroke-width="2" d="m 78,532.5 -1.5,1.5 -6.5,0 0,-4.5 1.5,-1.5 3.484375,-0.004 0,0.99807 3,0.002 z" opacity="1"/><g id="g4959" stroke="#fff" stroke-dasharray="none" stroke-miterlimit="4" stroke-opacity="1" stroke-width=".9" transform="translate(-2,-2)"><path id="path4945" fill="none" fill-rule="evenodd" stroke="#fff" stroke-dasharray="none" stroke-linecap="butt" stroke-linejoin="miter" stroke-miterlimit="4" stroke-opacity="1" stroke-width=".9" d="m 74.5,531.5 c 1,0 1,0.28518 1,1.5 0,1.21481 0,1.5 -1,1.5 -1,0 -1,-0.30273 -1,-1.5 0,-1.19726 0,-1.5 1,-1.5 z" opacity="1"/><path id="path4953" fill="none" fill-rule="evenodd" stroke="#fff" stroke-dasharray="none" stroke-linecap="butt" stroke-linejoin="miter" stroke-miterlimit="4" stroke-opacity="1" stroke-width=".9" d="m 75.309359,534.5 1.198874,1.38951"/><path id="path4955" fill="none" fill-rule="evenodd" stroke="#fff" stroke-dasharray="none" stroke-linecap="butt" stroke-linejoin="miter" stroke-miterlimit="4" stroke-opacity="1" stroke-width=".9" d="m 77.484375,530.9963 0,2.89815 c 0.0017,0.96521 0.846972,0.77673 1.515655,0.60555"/><path id="path4957" fill="none" fill-rule="evenodd" stroke="#fff" stroke-dasharray="none" stroke-linecap="butt" stroke-linejoin="miter" stroke-miterlimit="4" stroke-opacity="1" stroke-width=".9" d="m 76.5,532.5 2.5,0"/></g></g><path id="path4286-4" fill="#e1cab0" fill-opacity="1" stroke="none" d="m 21,-5325 -2,1 0,1 2,1 z"/><rect id="rect4296-5" width="6" height="1.999" x="21" y="-5325.001" fill="#f7ec07" fill-opacity="1" stroke="none"/><rect id="rect4298-5" width="6" height="2" x="21" y="-5324" fill="#f7aa03" fill-opacity="1" stroke="none"/><rect id="rect4300-1" width="6" height="1" x="21" y="-5324" fill="#fbcb00" fill-opacity="1" stroke="none"/><rect id="rect4302-7" width="1" height="1" x="26.98" y="-5325" fill="#e4e6e7" fill-opacity="1" stroke="none"/><rect id="rect4304-1" width="1" height="1" x="26.98" y="-5323" fill="#aeb1b3" fill-opacity="1" stroke="none"/><rect id="rect4306-1" width="1" height="1" x="26.98" y="-5324" fill="#c8c9c9" fill-opacity="1" stroke="none"/></g><g id="uifile_icon_32x32" transform="translate(0,-1036)"><image id="image3203" width="32" height="32" x="32" y="-5352" xlink:href="GenericDocumentIcon.iconset\icon_32x32.png"/><text font-size="4.712" style="line-height:125%" id="text3510" x="39.7" y="-6087.455" fill="#000" fill-opacity="1" stroke="none" font-family="Sans" font-style="normal" font-weight="normal" letter-spacing="0" transform="scale(1.1435936,0.87443651)" word-spacing="0" xml:space="preserve"><tspan style="-inkscape-font-specification:'Sans Bold'" id="tspan3514" x="39.7" y="-6087.455" font-weight="bold">UI</tspan></text><image id="image5338" width="16" height="16" x="40" y="-5344" image-rendering="optimizeSpeed" preserveAspectRatio="none" xlink:href="designer_icon_16x16.png"/></g><g id="uifile_icon_128x128" transform="translate(0,-1036)"><image id="image3214" width="128" height="128" x="200" y="-5448" xlink:href="GenericDocumentIcon.iconset\icon_128x128.png"/><g id="g4328" clip-path="url(#clipPath6024)" transform="translate(-1.6893267,0.99880497)"><use id="use4326" width="1920" height="1080" x="0" y="0" transform="matrix(2.3826256,0,0,2.9999998,149.91558,10637.104)" xlink:href="#text3510"/></g><image id="image5457" width="64" height="64" x="232" y="-5416" image-rendering="optimizeSpeed" preserveAspectRatio="none" xlink:href="designer_icon_64x64.png"/></g><g id="uifile_icon_256x256" transform="translate(0,-1036)"><image id="image3225" width="256" height="256" x="328" y="-5576" xlink:href="GenericDocumentIcon.iconset\icon_256x256.png"/><use id="use4332" width="1920" height="1080" x="0" y="0" transform="matrix(2,0,0,2,-72,5315.173)" xlink:href="#g4328"/><image id="image6519" width="128" height="128" x="392" y="-5512" image-rendering="optimizeSpeed" preserveAspectRatio="none" xlink:href="designer_icon_128x128.png"/></g><g id="uifile_icon_512x512" transform="translate(0,-1036)"><image id="image3236" width="512" height="512" x="584" y="-5832" xlink:href="GenericDocumentIcon.iconset\icon_512x512.png"/><use id="use4334" width="1920" height="1080" x="0" y="0" transform="matrix(2,0,0,2,-72,5320.6089)" xlink:href="#use4332"/><image id="image4519" width="256" height="256" x="712" y="-5704" image-rendering="optimizeSpeed" preserveAspectRatio="none" xlink:href="designer_icon_256x256.png"/></g><g id="uifile_icon_16x16@2x" transform="translate(0,-1560)"><image id="image4080" width="32" height="32" x="32" y="-5352" xlink:href="GenericDocumentIcon.iconset\icon_16x16@2x.png"/><text id="text4082" x="43.44" y="-5606.946" fill="#000" fill-opacity="1" stroke="none" font-family="Sans" font-size="4.34" font-style="normal" font-weight="normal" letter-spacing="0" transform="scale(1.0533249,0.94937471)" word-spacing="0" xml:space="preserve" style="line-height:125%"><tspan id="tspan4084" x="43.44" y="-5606.946" font-weight="bold" style="-inkscape-font-specification:'Sans Bold'">UI</tspan></text><image id="image5349" width="16" height="16" x="40" y="-5344" image-rendering="optimizeSpeed" preserveAspectRatio="none" xlink:href="designer_icon_16x16.png"/></g><g id="uifile_icon_32x32@2x"><image id="image4120" width="64" height="64" x="64" y="-6944" xlink:href="GenericDocumentIcon.iconset\icon_32x32@2x.png"/><use id="use4442" width="1" height="1" x="0" y="0" transform="matrix(0.5,0,0,0.5,-35.699029,-4220.9125)" xlink:href="#g4328"/><image id="image4508" width="32" height="32" x="80" y="-6928" image-rendering="optimizeSpeed" preserveAspectRatio="none" xlink:href="designer_icon_32x32.png"/></g><g id="uifile_icon_128x128@2x" transform="translate(0,-1560)"><image id="image4101" width="256" height="256" x="328" y="-5576" xlink:href="GenericDocumentIcon.iconset\icon_128x128@2x.png"/><use id="use4104" width="1920" height="1080" x="0" y="0" transform="matrix(2,0,0,2,-72,5315.173)" xlink:href="#g4328"/><image id="image6508" width="128" height="128" x="392" y="-5512" image-rendering="optimizeSpeed" preserveAspectRatio="none" xlink:href="designer_icon_128x128.png"/></g><g id="uifile_icon_256x256@2x" transform="translate(0,-1560)"><image id="image4108" width="512" height="512" x="584" y="-5832" xlink:href="GenericDocumentIcon.iconset\icon_256x256@2x.png"/><use id="use4110" width="1920" height="1080" x="0" y="0" transform="matrix(2,0,0,2,-72,5320.6089)" xlink:href="#use4332"/><image id="image4497" width="256" height="256" x="712" y="-5704" image-rendering="optimizeSpeed" preserveAspectRatio="none" xlink:href="designer_icon_256x256.png"/></g><g id="uifile_icon_512x512@2x"><image id="image4131" width="1024" height="1024" x="1096" y="-7905" xlink:href="GenericDocumentIcon.iconset\icon_512x512@2x.png"/><use id="use5743" width="1920" height="1080" x="0" y="0" transform="matrix(4,0,0,4,-216,14404.292)" xlink:href="#use4332"/><image id="image4530" width="512" height="512" x="1352" y="-7649" image-rendering="optimizeSpeed" preserveAspectRatio="none" xlink:href="designer_icon_512x512.png"/></g><g id="qtcreator-project_icon_16x16" transform="translate(0,-2600)"><image id="image3192-0" width="16" height="16" x="16" y="-5336" xlink:href="GenericDocumentIcon.iconset\icon_16x16.png"/><use id="use4802" width="100%" height="100%" x="0" y="0" transform="translate(-0.015625,0.01594865)" xlink:href="#tinyqt"/></g><g id="qtcreator-project_icon_32x32" transform="translate(0,-2600)"><image id="image3203-1" width="32" height="32" x="32" y="-5352" xlink:href="GenericDocumentIcon.iconset\icon_32x32.png"/><image id="image4838" width="16" height="16" x="40" y="-5344" image-rendering="optimizeSpeed" preserveAspectRatio="none" xlink:href="qtcreator_icon_16x16.png"/><text font-size="5.291" style="line-height:125%" id="text3510-4" x="40.865" y="-5421.468" fill="#000" fill-opacity="1" stroke="none" font-family="Sans" font-style="normal" font-weight="normal" letter-spacing="0" transform="scale(1.0185144,0.98182219)" word-spacing="0" xml:space="preserve"><tspan style="-inkscape-font-specification:'Sans Bold'" id="tspan3514-7" x="40.865" y="-5421.468" font-weight="bold">PRO</tspan></text></g><g id="qtcreator-project_icon_128x128" transform="translate(0,-2600)"><image id="image3214-5" width="128" height="128" x="200" y="-5448" xlink:href="GenericDocumentIcon.iconset\icon_128x128.png"/><image id="image4860" width="64" height="64" x="232" y="-5416" image-rendering="optimizeSpeed" preserveAspectRatio="none" xlink:href="qtcreator_icon_64x64.png"/><text font-size="12.622" style="line-height:125%" id="text3510-4-4" x="258.936" y="-5432.687" fill="#000" fill-opacity="1" stroke="none" font-family="Sans" font-style="normal" font-weight="normal" letter-spacing="0" transform="scale(1.0185144,0.98182216)" word-spacing="0" xml:space="preserve"><tspan style="-inkscape-font-specification:'Sans Bold';text-align:center" id="tspan3514-7-2" x="258.936" y="-5432.687" font-weight="bold" text-anchor="middle">PRO</tspan></text></g><g id="qtcreator-project_icon_256x256" transform="translate(0,-2600)"><image id="image3225-9" width="256" height="256" x="328" y="-5576" xlink:href="GenericDocumentIcon.iconset\icon_256x256.png"/><image id="image4882" width="128" height="128" x="392" y="-5512" image-rendering="optimizeSpeed" preserveAspectRatio="none" xlink:href="qtcreator_icon_128x128.png"/><text font-size="25.243" style="line-height:125%" id="text3510-4-4-1" x="447.181" y="-5446.878" fill="#000" fill-opacity="1" stroke="none" font-family="Sans" font-style="normal" font-weight="normal" letter-spacing="0" transform="scale(1.0185144,0.98182216)" word-spacing="0" xml:space="preserve"><tspan style="-inkscape-font-specification:'Sans Bold';text-align:center" id="tspan3514-7-2-7" x="447.181" y="-5446.878" font-weight="bold" text-anchor="middle">PRO</tspan></text></g><g id="qtcreator-project_icon_512x512" transform="translate(0,-2600)"><image id="image3236-4" width="512" height="512" x="584" y="-5832" xlink:href="GenericDocumentIcon.iconset\icon_512x512.png"/><image id="image4904" width="256" height="256" x="712" y="-5704" image-rendering="optimizeSpeed" preserveAspectRatio="none" xlink:href="qtcreator_icon_256x256.png"/><text font-size="50.486" style="line-height:125%" id="text3510-4-4-79" x="823.671" y="-5475.259" fill="#000" fill-opacity="1" stroke="none" font-family="Sans" font-style="normal" font-weight="normal" letter-spacing="0" transform="scale(1.0185144,0.98182216)" word-spacing="0" xml:space="preserve"><tspan style="-inkscape-font-specification:'Sans Bold';text-align:center" id="tspan3514-7-2-3" x="823.671" y="-5475.259" font-weight="bold" text-anchor="middle">PRO</tspan></text></g><g id="qtcreator-project_icon_16x16@2x" transform="translate(0,-3124)"><image id="image4080-8" width="32" height="32" x="32" y="-5352" xlink:href="GenericDocumentIcon.iconset\icon_16x16@2x.png"/><image id="image4827" width="16" height="16" x="40" y="-5344" image-rendering="optimizeSpeed" preserveAspectRatio="none" xlink:href="qtcreator_icon_16x16.png"/><use id="use5027" width="100%" height="100%" x="0" y="0" transform="translate(0.8660239,-0.03536906)" xlink:href="#text3510-4"/></g><g id="qtcreator-project_icon_32x32@2x" transform="translate(0,-1564)"><image id="image4120-3" width="64" height="64" x="64" y="-6944" xlink:href="GenericDocumentIcon.iconset\icon_32x32@2x.png"/><image id="image4849" width="32" height="32" x="80" y="-6928" image-rendering="optimizeSpeed" preserveAspectRatio="none" xlink:href="qtcreator_icon_32x32.png"/><text font-size="7.683" style="line-height:125%" id="text3510-4-9" x="91.547" y="-6551.963" fill="#000" fill-opacity="1" stroke="none" font-family="Sans" font-style="normal" font-weight="normal" letter-spacing="0" transform="scale(0.9513572,1.0511299)" word-spacing="0" xml:space="preserve"><tspan style="-inkscape-font-specification:'Sans Bold'" id="tspan3514-7-8" x="91.547" y="-6551.963" font-weight="bold">PRO</tspan></text></g><g id="qtcreator-project_icon_128x128@2x" transform="translate(0,-3124)"><image id="image4101-4" width="256" height="256" x="328" y="-5576" xlink:href="GenericDocumentIcon.iconset\icon_128x128@2x.png"/><image id="image4871" width="128" height="128" x="392" y="-5512" image-rendering="optimizeSpeed" preserveAspectRatio="none" xlink:href="qtcreator_icon_128x128.png"/><text font-size="25.243" style="line-height:125%" id="text3510-4-4-7" x="447.181" y="-5446.878" fill="#000" fill-opacity="1" stroke="none" font-family="Sans" font-style="normal" font-weight="normal" letter-spacing="0" transform="scale(1.0185144,0.98182216)" word-spacing="0" xml:space="preserve"><tspan style="-inkscape-font-specification:'Sans Bold';text-align:center" id="tspan3514-7-2-5" x="447.181" y="-5446.878" font-weight="bold" text-anchor="middle">PRO</tspan></text></g><g id="qtcreator-project_icon_256x256@2x" transform="translate(0,-3124)"><image id="image4108-5" width="512" height="512" x="584" y="-5832" xlink:href="GenericDocumentIcon.iconset\icon_256x256@2x.png"/><image id="image4893" width="256" height="256" x="712" y="-5704" image-rendering="optimizeSpeed" preserveAspectRatio="none" xlink:href="qtcreator_icon_256x256.png"/><text font-size="50.486" style="line-height:125%" id="text3510-4-4-77" x="823.671" y="-5473.22" fill="#000" fill-opacity="1" stroke="none" font-family="Sans" font-style="normal" font-weight="normal" letter-spacing="0" transform="scale(1.0185144,0.98182216)" word-spacing="0" xml:space="preserve"><tspan style="-inkscape-font-specification:'Sans Bold';text-align:center" id="tspan3514-7-2-6" x="823.671" y="-5473.22" font-weight="bold" text-anchor="middle">PRO</tspan></text></g><g id="qtcreator-project_icon_512x512@2x" transform="translate(0,-1564)"><image id="image4131-2" width="1024" height="1024" x="1096" y="-7905" xlink:href="GenericDocumentIcon.iconset\icon_512x512@2x.png"/><image id="image4915" width="512" height="512" x="1352" y="-7649" image-rendering="optimizeSpeed" preserveAspectRatio="none" xlink:href="qtcreator_icon_512x512.png"/><text font-size="100.973" style="line-height:125%" id="text3510-4-4-11" x="1576.65" y="-7121.918" fill="#000" fill-opacity="1" stroke="none" font-family="Sans" font-style="normal" font-weight="normal" letter-spacing="0" transform="scale(1.0185144,0.98182216)" word-spacing="0" xml:space="preserve"><tspan style="-inkscape-font-specification:'Sans Bold';text-align:center" id="tspan3514-7-2-0" x="1576.65" y="-7121.918" font-weight="bold" text-anchor="middle">PRO</tspan></text></g></g></svg>