<svg xmlns="http://www.w3.org/2000/svg" xmlns:svg="http://www.w3.org/2000/svg" xmlns:xlink="http://www.w3.org/1999/xlink" id="svg2411" width="24" height="24" version="1.0"><defs id="defs2413"><linearGradient id="linearGradient3201" x1="375.31" x2="466.887" y1="88.869" y2="180.435" gradientTransform="matrix(3.6285394,0,0,3.6290105,-1258.7023,-359.38242)" gradientUnits="userSpaceOnUse" spreadMethod="pad" xlink:href="#linearGradient001"/><linearGradient id="linearGradient001"><stop id="stop608" offset="0" stop-color="#cfcfcf" stop-opacity="1"/><stop id="stop609" offset="1" stop-color="#efefef" stop-opacity="1"/></linearGradient><linearGradient id="linearGradient3207" x1="470.393" x2="374.91" y1="136.231" y2="136.231" gradientTransform="matrix(3.8401167,0,0,3.8424815,-1348.031,-388.46373)" gradientUnits="userSpaceOnUse" spreadMethod="pad" xlink:href="#linearGradient001"/><linearGradient id="linearGradient002"><stop id="stop566" offset="0" stop-color="#9d9d9f" stop-opacity="1"/><stop id="stop567" offset="1" stop-color="#e5e5e5" stop-opacity="1"/></linearGradient><linearGradient id="linearGradient2419" x1="471.005" x2="348.948" y1="201.052" y2="79.051" gradientTransform="matrix(3.6611924,0,0,3.6628816,-1231.7325,-383.72165)" gradientUnits="userSpaceOnUse" spreadMethod="pad" xlink:href="#linearGradient002"/></defs><metadata id="metadata2416"/><g id="layer1"><g id="g2404" transform="matrix(4.3636364e-2,0,0,4.3636364e-2,0,6.1090908)"><rect id="rect621" width="550" height="550" x="0" y="-140" fill="#b0b0b0" fill-opacity="1" fill-rule="evenodd" stroke="none" stroke-opacity="1" stroke-width="1.089" font-size="12" ry="81.511"/><rect id="rect2417" width="527.083" height="527.092" x="11.458" y="-128.551" fill="url(#linearGradient2419)" fill-rule="evenodd" stroke="none" stroke-dasharray="none" stroke-miterlimit="4" stroke-width="1.031" font-size="12" ry="78.116"/><rect id="rect3205" width="412.3" height="412.5" x="68.95" y="-71.25" fill="url(#linearGradient3207)" fill-rule="evenodd" stroke="none" stroke-dasharray="none" stroke-miterlimit="4" stroke-width="2.498" font-size="12" rx="34.515" ry="39.785"/><rect id="rect3199" width="389.583" height="389.583" x="80.208" y="-59.792" fill="url(#linearGradient3201)" fill-rule="evenodd" stroke="none" stroke-dasharray="none" stroke-miterlimit="4" stroke-width="25.415" font-size="12" rx="22.903" ry="25.401"/><path id="text3219" fill="#000" fill-opacity="1" stroke="none" stroke-linecap="butt" stroke-linejoin="miter" stroke-opacity="1" stroke-width="1" d="M 137.5,157.91667 L 137.5,-2.4752517 L 229.16667,-2.5 L 229.16667,20.416667 L 160.41667,20.416667 L 160.41667,66.25 L 206.25,66.25 L 206.25,89.166667 L 160.41667,89.166667 L 160.41667,157.91667 L 137.5,157.91667 z M 320.89291,157.91667 L 297.91667,157.91667 L 297.91667,40.04211 C 284.08134,48.574912 275.21133,59.2993 252.08333,66.25 L 252.08333,47.355939 C 263.04835,44.807707 286.00818,25.67917 293.48823,18.312241 C 300.9682,10.945593 306.26379,4.4293192 309.375,-2.5 L 320.83333,-2.5 L 320.89291,157.91667 z" font-family="Bitstream Vera Sans" font-size="261.655" font-style="normal" font-weight="normal" text-anchor="middle" style="text-align:center"/></g></g></svg>